HIERARCHY
ROOT Hips
{
	OFFSET 0.00 0.00 0.00
	CHANNELS 6 Xposition Yposition Zposition Xrotation Yrotation Zrotation
	JOINT Spine
	{
		OFFSET 0.00000 1.70439 2.55658
		CHANNELS 3 Xrotation Yrotation Zrotation
		JOINT Spine1
		{
			OFFSET 0.00000 0.59193 3.35699
			CHANNELS 3 Xrotation Yrotation Zrotation
			JOINT Spine2
			{
				OFFSET 0.00000 0.29710 3.39581
				CHANNELS 3 Xrotation Yrotation Zrotation
				JOINT Spine3
				{
					OFFSET 0.00000 0.00000 3.40878
					CHANNELS 3 Xrotation Yrotation Zrotation
					JOINT Neck
					{
						OFFSET 0.00000 -1.27828 8.94804
						CHANNELS 3 Xrotation Yrotation Zrotation
						JOINT Head
						{
							OFFSET 0.00000 -0.81390 4.61586
							CHANNELS 3 Xrotation Yrotation Zrotation
							End Site
							{
								OFFSET 0.00000 0.00001 5.51796
							}
						}
					}
					JOINT RightShoulder
					{
						OFFSET -1.18875 -1.98124 6.41925
						CHANNELS 3 Xrotation Yrotation Zrotation
						JOINT RightArm
						{
							OFFSET -5.90412 0.00000 0.00000
							CHANNELS 3 Xrotation Yrotation Zrotation
							JOINT RightForeArm
							{
								OFFSET -11.94674 0.00000 0.00000
								CHANNELS 3 Xrotation Yrotation Zrotation
								JOINT RightHand
								{
									OFFSET -10.17720 0.00000 0.00000
									CHANNELS 3 Xrotation Yrotation Zrotation
									JOINT RightHandEnd
									{
										OFFSET -2.84518 0.00000 0.00000
										CHANNELS 3 Xrotation Yrotation Zrotation
										End Site
										{
											OFFSET -2.84518 0.00000 0.00000
										}
									}
									JOINT RightHandThumb1
									{
										OFFSET -1.13807 -1.89679 -0.75871
										CHANNELS 3 Yrotation Xrotation Zrotation
										End Site
										{
											OFFSET -2.74823 -0.73639 0.00000
										}
									}
								}
							}
						}
					}
					JOINT LeftShoulder
					{
						OFFSET 1.18875 -1.98124 6.41925
						CHANNELS 3 Xrotation Yrotation Zrotation
						JOINT LeftArm
						{
							OFFSET 5.90412 0.00000 0.00000
							CHANNELS 3 Xrotation Yrotation Zrotation
							JOINT LeftForeArm
							{
								OFFSET 11.94674 0.00000 0.00000
								CHANNELS 3 Xrotation Yrotation Zrotation
								JOINT LeftHand
								{
									OFFSET 10.17720 0.00000 0.00000
									CHANNELS 3 Xrotation Yrotation Zrotation
									JOINT LeftHandEnd
									{
										OFFSET 2.84518 0.00000 0.00000
										CHANNELS 3 Xrotation Yrotation Zrotation
										End Site
										{
											OFFSET 2.84518 0.00000 0.00000
										}
									}
									JOINT LeftHandThumb1
									{
										OFFSET 1.13807 -1.89679 -0.75871
										CHANNELS 3 Yrotation Xrotation Zrotation
										End Site
										{
											OFFSET 2.74823 -0.73639 0.00000
										}
									}
								}
							}
						}
					}
				}
			}
		}
	}
	JOINT RightUpLeg
	{
		OFFSET -3.52662 0.00000 -1.03025
		CHANNELS 3 Xrotation Yrotation Zrotation
		JOINT RightLeg
		{
			OFFSET 0.00001 0.00000 -17.80159
			CHANNELS 3 Xrotation Yrotation Zrotation
			JOINT RightFoot
			{
				OFFSET 0.00001 0.00000 -16.85992
				CHANNELS 3 Xrotation Yrotation Zrotation
				JOINT RightToeBase
				{
					OFFSET 0.00000 -5.42953 -1.97619
					CHANNELS 3 Xrotation Yrotation Zrotation
					End Site
					{
						OFFSET 0.00000 -2.85300 -0.00000
					}
				}
			}
		}
	}
	JOINT LeftUpLeg
	{
		OFFSET 3.52662 0.00000 -1.03025
		CHANNELS 3 Xrotation Yrotation Zrotation
		JOINT LeftLeg
		{
			OFFSET 0.00001 0.00000 -17.80159
			CHANNELS 3 Xrotation Yrotation Zrotation
			JOINT LeftFoot
			{
				OFFSET 0.00001 0.00000 -16.85992
				CHANNELS 3 Xrotation Yrotation Zrotation
				JOINT LeftToeBase
				{
					OFFSET 0.00000 -5.42953 -1.97619
					CHANNELS 3 Xrotation Yrotation Zrotation
					End Site
					{
						OFFSET 0.00000 -2.85300 -0.00000
					}
				}
			}
		}
	}
}
MOTION
Frames: 18
Frame Time: 0.008342
 -1.1314 -88.2126 37.4279 1.0987 1.7783 -175.2381 1.6831 0.3832 -0.5756 0.7692 0.7365 -0.0718 1.7792 -1.2325 -2.8615 0.0763 0.4721 0.2422 1.0739 -2.6240 -3.9749 -2.5667 1.5080 0.4639 3.6719 4.3919 -6.3111 -10.5361 -0.9629 -5.0546 0.0000 0.0000 15.9703 -6.8969 29.0022 -8.7025 0.0000 -0.0000 -0.0000 0.0000 -0.0000 0.0000 0.6598 -7.5548 -3.0418 -1.8127 10.4021 4.4177 -0.0000 -0.0000 -16.7425 -6.5471 -17.2805 3.7961 0.0000 -0.0000 -0.0000 0.0000 -0.0000 0.0000 1.2859 5.5825 -30.3013 15.9167 0.0000 0.0000 -16.5914 -4.6930 -12.4805 1.4297 0.0000 0.0000 -4.5565 -5.0918 10.5142 22.2860 0.0000 0.0000 -9.5029 16.9203 5.2120 -10.8724 0.0000 -0.0000
 -1.1469 -88.2066 37.4316 1.1447 1.8127 -175.2626 1.6467 0.4067 -0.5776 0.7600 0.7400 -0.0703 1.7940 -1.2235 -2.8361 0.0804 0.4720 0.2430 1.1070 -2.6404 -3.9653 -2.5877 1.5136 0.4547 3.6671 4.4483 -6.2708 -10.4364 -0.9939 -5.0396 0.0000 0.0000 15.9121 -6.8672 28.9340 -8.7088 0.0000 -0.0000 -0.0000 0.0000 -0.0000 -0.0000 0.6823 -7.5544 -3.0345 -1.7211 10.4519 4.3721 -0.0000 -0.0000 -16.7508 -6.4749 -17.2706 3.7790 -0.0000 0.0000 -0.0000 0.0000 0.0000 -0.0000 1.3545 5.6376 -30.3436 15.8926 0.0000 0.0000 -16.5608 -4.7056 -12.4251 1.4370 0.0000 0.0000 -4.4300 -5.0530 10.3777 22.1883 0.0000 0.0000 -9.4381 16.9849 5.0533 -10.8867 0.0000 -0.0000
 -1.1680 -88.1981 37.4360 1.2137 1.8482 -175.2947 1.6038 0.4282 -0.5816 0.7462 0.7413 -0.0704 1.8111 -1.2099 -2.7986 0.0860 0.4726 0.2424 1.1537 -2.6609 -3.9514 -2.6153 1.5192 0.4423 3.6644 4.5311 -6.2159 -10.3030 -1.0418 -5.0122 0.0000 0.0000 15.8231 -6.8372 28.8339 -8.7168 -0.0000 0.0000 -0.0000 0.0000 -0.0000 -0.0000 0.7119 -7.5534 -3.0254 -1.5983 10.5183 4.3144 -0.0000 -0.0000 -16.7620 -6.3793 -17.2583 3.7540 -0.0000 -0.0000 0.0000 0.0000 0.0000 0.0000 1.4615 5.6990 -30.4190 15.8464 0.0000 0.0000 -16.5155 -4.7269 -12.3341 1.4500 0.0000 0.0000 -4.2464 -5.0086 10.2211 22.0437 0.0000 0.0000 -9.3697 17.0582 4.8548 -10.8821 0.0000 -0.0000
 -1.1951 -88.1878 37.4409 1.2944 1.8868 -175.3376 1.5427 0.4492 -0.5846 0.7277 0.7401 -0.0680 1.8312 -1.1909 -2.7575 0.0932 0.4732 0.2434 1.2128 -2.6836 -3.9319 -2.6500 1.5252 0.4277 3.6592 4.6387 -6.1398 -10.1346 -1.1015 -4.9765 0.0000 0.0000 15.7024 -6.8081 28.6954 -8.7286 0.0000 0.0000 0.0000 0.0000 -0.0000 -0.0000 0.7466 -7.5464 -3.0118 -1.4427 10.5954 4.2422 -0.0000 -0.0000 -16.7731 -6.2613 -17.2469 3.7226 -0.0000 -0.0000 0.0000 0.0000 -0.0000 -0.0000 1.5915 5.7723 -30.5273 15.7842 0.0000 0.0000 -16.4596 -4.7570 -12.2043 1.4699 0.0000 0.0000 -4.0131 -4.9517 10.0568 21.8421 0.0000 0.0000 -9.3054 17.1308 4.6322 -10.8471 0.0000 -0.0000
 -1.2280 -88.1758 37.4458 1.3882 1.9253 -175.3904 1.4676 0.4671 -0.5882 0.7040 0.7359 -0.0659 1.8535 -1.1688 -2.7081 0.1022 0.4752 0.2433 1.2828 -2.7062 -3.9051 -2.6914 1.5312 0.4106 3.6536 4.7721 -6.0441 -9.9384 -1.1736 -4.9288 0.0000 0.0000 15.5481 -6.7847 28.5179 -8.7441 -0.0000 0.0000 0.0000 0.0000 -0.0000 0.0000 0.7830 -7.5317 -2.9940 -1.2599 10.6800 4.1602 -0.0000 -0.0000 -16.7837 -6.1250 -17.2376 3.6841 -0.0000 -0.0000 0.0000 -0.0000 -0.0000 0.0000 1.7470 5.8545 -30.6748 15.7042 0.0000 0.0000 -16.3941 -4.7980 -12.0301 1.4973 0.0000 0.0000 -3.7270 -4.8824 9.8970 21.5768 0.0000 0.0000 -9.2558 17.1932 4.4039 -10.7710 0.0000 -0.0000
 -1.2662 -88.1628 37.4502 1.4901 1.9607 -175.4539 1.3770 0.4794 -0.5913 0.6773 0.7261 -0.0614 1.8767 -1.1416 -2.6575 0.1128 0.4764 0.2466 1.3605 -2.7248 -3.8716 -2.7394 1.5356 0.3915 3.6470 4.9289 -5.9295 -9.7219 -1.2535 -4.8695 0.0000 0.0000 15.3609 -6.7697 28.3018 -8.7635 -0.0000 -0.0000 -0.0000 -0.0000 -0.0000 -0.0000 0.8174 -7.5044 -2.9716 -1.0552 10.7650 4.0706 -0.0000 -0.0000 -16.7924 -5.9770 -17.2330 3.6398 -0.0000 0.0000 0.0000 0.0000 -0.0000 -0.0000 1.9208 5.9424 -30.8610 15.6087 0.0000 0.0000 -16.3213 -4.8505 -11.8106 1.5320 0.0000 0.0000 -3.3925 -4.8006 9.7570 21.2429 0.0000 0.0000 -9.2313 17.2353 4.1905 -10.6444 0.0000 -0.0000
 -1.3089 -88.1489 37.4538 1.6044 1.9892 -175.5277 1.2828 0.4834 -0.5951 0.6436 0.7124 -0.0606 1.9027 -1.1180 -2.5911 0.1245 0.4821 0.2422 1.4418 -2.7370 -3.8288 -2.7917 1.5388 0.3716 3.6394 5.1050 -5.7952 -9.4943 -1.3366 -4.7986 0.0000 0.0000 15.1425 -6.7663 28.0496 -8.7863 -0.0000 0.0000 -0.0000 0.0000 -0.0000 -0.0000 0.8463 -7.4631 -2.9413 -0.8376 10.8452 3.9768 -0.0000 -0.0000 -16.7976 -5.8203 -17.2367 3.5933 -0.0000 -0.0000 -0.0000 -0.0000 -0.0000 0.0000 2.1175 6.0311 -31.0878 15.4967 0.0000 0.0000 -16.2425 -4.9161 -11.5440 1.5733 0.0000 0.0000 -3.0053 -4.7080 9.6524 20.8365 0.0000 0.0000 -9.2411 17.2487 4.0112 -10.4607 0.0000 -0.0000
 -1.3553 -88.1351 37.4562 1.7230 2.0109 -175.6127 1.1808 0.4799 -0.5982 0.6082 0.6914 -0.0595 1.9297 -1.0938 -2.5219 0.1375 0.4878 0.2389 1.5217 -2.7380 -3.7773 -2.8481 1.5396 0.3511 3.6301 5.2952 -5.6441 -9.2681 -1.4159 -4.7189 0.0000 0.0000 14.9006 -6.7765 27.7667 -8.8141 0.0000 0.0000 -0.0000 0.0000 -0.0000 -0.0000 0.8644 -7.4017 -2.9040 -0.6156 10.9115 3.8836 -0.0000 -0.0000 -16.7985 -5.6630 -17.2513 3.5473 0.0000 0.0000 0.0000 -0.0000 0.0000 0.0000 2.3237 6.1216 -31.3480 15.3763 0.0000 0.0000 -16.1629 -4.9940 -11.2349 1.6203 0.0000 0.0000 -2.5748 -4.6018 9.5970 20.3552 0.0000 0.0000 -9.2902 17.2260 3.8848 -10.2170 0.0000 -0.0000
 -1.4043 -88.1216 37.4569 1.8467 2.0247 -175.7095 1.0783 0.4693 -0.6005 0.5717 0.6628 -0.0586 1.9583 -1.0713 -2.4498 0.1518 0.4931 0.2364 1.5949 -2.7242 -3.7166 -2.9075 1.5382 0.3306 3.6177 5.4938 -5.4782 -9.0537 -1.4841 -4.6323 0.0000 0.0000 14.6417 -6.7998 27.4607 -8.8471 -0.0000 0.0000 -0.0000 0.0000 -0.0000 0.0000 0.8678 -7.3171 -2.8584 -0.3989 10.9576 3.7950 -0.0000 -0.0000 -16.7944 -5.5148 -17.2802 3.5041 -0.0000 0.0000 0.0000 -0.0000 -0.0000 -0.0000 2.5370 6.2116 -31.6335 15.2516 0.0000 0.0000 -16.0855 -5.0834 -10.8902 1.6714 0.0000 0.0000 -2.1020 -4.4823 9.6033 19.7987 0.0000 0.0000 -9.3798 17.1636 3.8216 -9.9142 0.0000 -0.0000
 -1.4548 -88.1091 37.4559 1.9715 2.0302 -175.8183 0.9781 0.4528 -0.6022 0.5332 0.6265 -0.0578 1.9912 -1.0544 -2.3734 0.1669 0.4988 0.2322 1.6559 -2.6930 -3.6456 -2.9685 1.5342 0.3109 3.6008 5.6933 -5.2994 -8.8609 -1.5333 -4.5417 0.0000 0.0000 14.3749 -6.8374 27.1416 -8.8855 0.0000 0.0000 -0.0000 0.0000 -0.0000 0.0000 0.8510 -7.2068 -2.8023 -0.1958 10.9779 3.7150 -0.0000 -0.0000 -16.7859 -5.3801 -17.3258 3.4659 0.0000 0.0000 0.0000 -0.0000 0.0000 -0.0000 2.7486 6.3002 -31.9333 15.1297 0.0000 0.0000 -16.0139 -5.1824 -10.5188 1.7249 0.0000 0.0000 -1.5948 -4.3504 9.6814 19.1705 0.0000 0.0000 -9.5062 17.0609 3.8238 -9.5579 0.0000 -0.0000
 -1.5058 -88.0975 37.4531 2.1031 2.0277 -175.9392 0.8893 0.4307 -0.6034 0.4973 0.5838 -0.0587 2.0265 -1.0441 -2.2940 0.1828 0.5033 0.2294 1.7010 -2.6426 -3.5657 -3.0298 1.5276 0.2923 3.5784 5.8875 -5.1109 -8.6963 -1.5569 -4.4509 0.0000 0.0000 14.1103 -6.8859 26.8202 -8.9291 0.0000 -0.0000 0.0000 -0.0000 -0.0000 -0.0000 0.8128 -7.0691 -2.7368 -0.0137 10.9678 3.6474 -0.0000 -0.0000 -16.7738 -5.2618 -17.3899 3.4369 -0.0000 -0.0000 0.0000 -0.0000 -0.0000 -0.0000 2.9624 6.3854 -32.2352 15.0137 0.0000 0.0000 -15.9499 -5.2888 -10.1323 1.7791 0.0000 0.0000 -1.0494 -4.2076 9.8352 18.4731 0.0000 0.0000 -9.6609 16.9215 3.8863 -9.1568 0.0000 -0.0000
 -1.5563 -88.0873 37.4485 2.2382 2.0193 -176.0736 0.8145 0.4076 -0.6019 0.4602 0.5356 -0.0610 2.0681 -1.0446 -2.2100 0.1992 0.5074 0.2238 1.7257 -2.5731 -3.4758 -3.0902 1.5194 0.2759 3.5500 6.0703 -4.9145 -8.5660 -1.5503 -4.3621 0.0000 0.0000 13.8569 -6.9438 26.5086 -8.9764 0.0000 0.0000 0.0000 -0.0000 0.0000 0.0000 0.7511 -6.9054 -2.6583 0.1409 10.9268 3.5938 -0.0000 -0.0000 -16.7603 -5.1665 -17.4730 3.4157 0.0000 -0.0000 -0.0000 -0.0000 -0.0000 0.0000 3.1687 6.4690 -32.5202 14.9124 0.0000 0.0000 -15.8972 -5.3982 -9.7468 1.8316 0.0000 0.0000 -0.4742 -4.0547 10.0684 17.7144 0.0000 0.0000 -9.8305 16.7521 3.9930 -8.7235 0.0000 -0.0000
 -1.6058 -88.0785 37.4425 2.3775 2.0073 -176.2197 0.7542 0.3854 -0.5999 0.4275 0.4838 -0.0641 2.1146 -1.0544 -2.1252 0.2159 0.5082 0.2210 1.7284 -2.4850 -3.3783 -3.1487 1.5098 0.2615 3.5139 6.2360 -4.7149 -8.4694 -1.5087 -4.2776 0.0000 0.0000 13.6252 -7.0060 26.2169 -9.0298 -0.0000 0.0000 0.0000 0.0000 -0.0000 0.0000 0.6658 -6.7166 -2.5700 0.2669 10.8548 3.5563 -0.0000 -0.0000 -16.7469 -5.0935 -17.5746 3.4039 -0.0000 -0.0000 0.0000 -0.0000 0.0000 0.0000 3.3662 6.5521 -32.7769 14.8298 0.0000 0.0000 -15.8570 -5.5069 -9.3747 1.8819 0.0000 0.0000 0.1264 -3.8925 10.3718 16.9038 0.0000 0.0000 -10.0003 16.5625 4.1273 -8.2725 0.0000 -0.0000
 -1.6535 -88.0709 37.4354 2.5209 1.9944 -176.3763 0.7091 0.3673 -0.5971 0.3998 0.4310 -0.0678 2.1662 -1.0740 -2.0416 0.2328 0.5050 0.2221 1.7079 -2.3814 -3.2750 -3.2038 1.4992 0.2497 3.4706 6.3811 -4.5148 -8.4052 -1.4325 -4.1988 0.0000 0.0000 13.4216 -7.0677 25.9545 -9.0838 0.0000 -0.0000 -0.0000 -0.0000 -0.0000 -0.0000 0.5584 -6.5072 -2.4718 0.3635 10.7548 3.5352 -0.0000 -0.0000 -16.7370 -5.0445 -17.6920 3.4006 -0.0000 -0.0000 0.0000 0.0000 0.0000 0.0000 3.5523 6.6358 -32.9913 14.7697 0.0000 0.0000 -15.8303 -5.6099 -9.0303 1.9287 0.0000 0.0000 0.7458 -3.7233 10.7351 16.0548 0.0000 0.0000 -10.1544 16.3652 4.2653 -7.8205 0.0000 -0.0000
 -1.6990 -88.0643 37.4277 2.6713 1.9817 -176.5407 0.6832 0.3549 -0.5928 0.3759 0.3805 -0.0724 2.2224 -1.1054 -1.9574 0.2497 0.4985 0.2239 1.6650 -2.2661 -3.1674 -3.2536 1.4881 0.2405 3.4197 6.5028 -4.3173 -8.3676 -1.3233 -4.1265 0.0000 0.0000 13.2541 -7.1245 25.7272 -9.1401 0.0000 -0.0000 0.0000 -0.0000 -0.0000 0.0000 0.4330 -6.2840 -2.3645 0.4345 10.6328 3.5281 -0.0000 -0.0000 -16.7315 -5.0180 -17.8218 3.4018 -0.0000 -0.0000 -0.0000 -0.0000 -0.0000 -0.0000 3.7296 6.7192 -33.1544 14.7327 0.0000 0.0000 -15.8158 -5.7032 -8.7252 1.9710 0.0000 0.0000 1.3788 -3.5517 11.1422 15.1848 0.0000 0.0000 -10.2790 16.1740 4.3842 -7.3840 0.0000 -0.0000
 -1.7421 -88.0589 37.4198 2.8201 1.9734 -176.7092 0.6666 0.3526 -0.5879 0.3561 0.3339 -0.0759 2.2825 -1.1450 -1.8789 0.2663 0.4870 0.2302 1.6019 -2.1453 -3.0591 -3.2979 1.4770 0.2340 3.3615 6.5984 -4.1256 -8.3485 -1.1846 -4.0594 0.0000 0.0000 13.1240 -7.1739 25.5399 -9.1903 0.0000 0.0000 0.0000 0.0000 -0.0000 0.0000 0.2940 -6.0532 -2.2513 0.4830 10.4947 3.5349 -0.0000 -0.0000 -16.7339 -5.0086 -17.9596 3.4064 0.0000 -0.0000 -0.0000 -0.0000 -0.0000 -0.0000 3.8866 6.8062 -33.2572 14.7229 0.0000 0.0000 -15.8147 -5.7813 -8.4713 2.0092 0.0000 0.0000 2.0054 -3.3781 11.5679 14.3157 0.0000 0.0000 -10.3643 16.0012 4.4695 -6.9790 0.0000 -0.0000
 -1.7823 -88.0544 37.4122 2.9687 1.9701 -176.8760 0.6599 0.3608 -0.5831 0.3391 0.2953 -0.0795 2.3451 -1.1930 -1.8042 0.2822 0.4716 0.2384 1.5223 -2.0253 -2.9533 -3.3358 1.4668 0.2303 3.2971 6.6675 -3.9427 -8.3387 -1.0229 -3.9966 0.0000 0.0000 13.0337 -7.2111 25.3907 -9.2342 -0.0000 0.0000 -0.0000 0.0000 -0.0000 0.0000 0.1476 -5.8249 -2.1350 0.5151 10.3497 3.5527 -0.0000 -0.0000 -16.7453 -5.0153 -18.1002 3.4090 0.0000 -0.0000 -0.0000 -0.0000 0.0000 -0.0000 4.0277 6.8947 -33.3012 14.7362 0.0000 0.0000 -15.8238 -5.8415 -8.2734 2.0437 0.0000 0.0000 2.6160 -3.2082 11.9854 13.4714 0.0000 0.0000 -10.4058 15.8582 4.5107 -6.6191 0.0000 -0.0000
 -1.8195 -88.0509 37.4054 3.1123 1.9727 -177.0347 0.6565 0.3801 -0.5781 0.3254 0.2661 -0.0818 2.4075 -1.2459 -1.7391 0.2970 0.4519 0.2505 1.4304 -1.9130 -2.8547 -3.3665 1.4577 0.2293 3.2271 6.7104 -3.7720 -8.3293 -0.8464 -3.9373 0.0000 0.0000 12.9826 -7.2322 25.2774 -9.2680 -0.0000 -0.0000 -0.0000 0.0000 -0.0000 0.0000 -0.0001 -5.6073 -2.0204 0.5376 10.2047 3.5791 -0.0000 -0.0000 -16.7660 -5.0300 -18.2377 3.4093 0.0000 -0.0000 -0.0000 0.0000 0.0000 0.0000 4.1502 6.9833 -33.2894 14.7685 0.0000 0.0000 -15.8402 -5.8810 -8.1346 2.0742 0.0000 0.0000 3.1926 -3.0471 12.3665 12.6781 0.0000 0.0000 -10.4047 15.7525 4.5055 -6.3134 0.0000 -0.0000
